<svg xmlns="http://www.w3.org/2000/svg" width="512" height="512" viewBox="0 0 512 512" version="1.1"><path d="M 337.312 106.060 C 317.065 129.193, 300.377 148.655, 300.227 149.310 C 299.951 150.516, 317.384 176.279, 318.803 176.762 C 319.596 177.032, 399.491 85.075, 398.854 84.625 C 398.660 84.487, 393.264 79.790, 386.865 74.187 C 380.466 68.584, 374.981 64, 374.677 64 C 374.372 64, 357.558 82.927, 337.312 106.060" stroke="none" fill="#616b77" fill-rule="evenodd"/><path d="M 336.966 41.820 C 336.123 42.194, 334.528 43.175, 333.422 44 C 331.233 45.633, 274 111.586, 274 112.475 C 274 113.137, 296.705 145.995, 298.367 147.738 C 299.290 148.706, 307.406 140.009, 335.524 107.925 C 355.311 85.347, 372.086 66.049, 372.803 65.041 C 373.976 63.391, 373.174 62.380, 364.803 54.956 C 350.585 42.345, 348.464 40.988, 343.100 41.070 C 340.570 41.109, 337.810 41.446, 336.966 41.820 M 359.180 131.465 L 319.006 177.965 329.727 193.482 L 340.448 209 381.629 209 L 422.809 209 443.539 185.250 C 454.940 172.188, 465.106 160.150, 466.130 158.500 C 468.419 154.813, 468.519 149.896, 466.396 145.423 C 465.352 143.223, 454.267 132.900, 434.646 115.859 C 418.066 101.458, 403.342 88.615, 401.927 87.320 L 399.354 84.965 359.180 131.465 M 405.811 282.748 C 413.681 282.917, 426.281 282.917, 433.811 282.747 C 441.340 282.578, 434.900 282.439, 419.500 282.440 C 404.100 282.440, 397.940 282.579, 405.811 282.748 M 114.500 452 L 107.500 452.647 114.750 452.823 C 119.034 452.928, 122 452.591, 122 452 C 122 451.450, 121.888 451.079, 121.750 451.177 C 121.612 451.274, 118.350 451.644, 114.500 452 M 309.250 451.750 C 330.013 451.901, 363.988 451.901, 384.750 451.750 C 405.513 451.599, 388.525 451.475, 347 451.475 C 305.475 451.475, 288.488 451.599, 309.250 451.750" stroke="none" fill="#fa4968" fill-rule="evenodd"/><path d="M 172.919 28.260 C 167.042 31.265, 54.416 109.354, 50.234 113.323 C 43.263 119.940, 40.341 130.109, 43.350 137.282 C 44.092 139.052, 55.619 156.401, 68.966 175.836 C 90.418 207.074, 93.480 211.099, 95.366 210.543 C 96.540 210.197, 100.135 209.511, 103.356 209.018 C 106.576 208.525, 109.346 207.982, 109.510 207.811 C 109.674 207.640, 103.718 198.725, 96.273 188 C 71.199 151.877, 71.786 152.822, 72.428 149.608 C 72.749 148.006, 75.033 144.534, 77.505 141.891 C 83.165 135.840, 83.776 130.897, 79.982 121.852 C 76.485 113.515, 75.560 114.399, 119.453 84.133 C 164.305 53.206, 163.342 53.646, 170.207 60.943 C 175.948 67.044, 183.188 68.459, 190.859 64.978 C 195.859 62.709, 199.924 62.448, 202.188 64.250 C 203.052 64.938, 225.457 97, 251.976 135.500 C 278.496 174, 300.747 206.081, 301.424 206.791 C 302.291 207.701, 305.218 207.997, 311.333 207.791 L 320.011 207.500 260.520 121.500 C 227.799 74.200, 199.256 33.894, 197.089 31.931 C 190.265 25.747, 180.681 24.291, 172.919 28.260 M 175.856 37.504 C 172.274 39.467, 170.855 43.749, 172.494 47.649 C 173.950 51.111, 177.791 53.018, 183.792 53.257 C 187.145 53.391, 188.534 52.863, 190.975 50.524 C 194.501 47.146, 194.796 44.282, 191.988 40.712 C 189.152 37.107, 179.928 35.273, 175.856 37.504 M 58.451 118.131 C 55.470 119.579, 53.965 122.496, 53.299 128.122 C 52.620 133.858, 53.988 137.218, 57.691 138.905 C 62.860 141.260, 68.481 135.290, 69.708 126.142 C 70.154 122.817, 69.829 122.034, 67.031 119.679 C 63.665 116.847, 61.790 116.509, 58.451 118.131 M 148.871 121.006 C 142.325 124.465, 138.003 131.629, 138.015 139 C 138.022 142.945, 142.479 151.493, 145.740 153.815 C 155.911 161.057, 169.506 157.770, 175.152 146.703 C 178 141.119, 177.399 132.713, 173.759 127.212 C 168.760 119.658, 156.980 116.721, 148.871 121.006 M 201.300 181.805 C 191.320 185.363, 182.893 192.979, 178.402 202.500 L 176.043 207.500 213.176 207.762 C 233.599 207.907, 250.529 207.804, 250.799 207.535 C 251.068 207.265, 250.509 205.002, 249.555 202.505 C 246.977 195.755, 239.035 187.635, 231.273 183.814 C 225.589 181.015, 223.477 180.537, 215.602 180.265 C 208.660 180.026, 205.266 180.391, 201.300 181.805 M 180.656 357.581 C 172.101 359.653, 160.016 366.334, 152.701 373.036 C 125.306 398.139, 124.302 440.227, 150.474 466.419 C 162.816 478.771, 176.119 484.810, 193.042 485.742 C 228.492 487.696, 258.921 460.770, 261.679 425.007 C 262.474 414.702, 260.012 402.867, 254.813 392 C 251.477 385.025, 249.200 381.970, 242.124 374.974 C 232.528 365.488, 223.476 360.254, 212 357.557 C 203.981 355.673, 188.491 355.685, 180.656 357.581 M 193.020 366.284 C 190.079 367.772, 188.035 371.434, 188.015 375.250 C 188.001 377.815, 187.715 378, 183.750 378.006 C 176.910 378.015, 172.492 379.752, 167.192 384.517 C 161.184 389.919, 158.875 395.206, 158.875 403.559 C 158.875 410.805, 160.485 415.205, 165.030 420.382 C 171.434 427.675, 174.110 428.427, 195.672 428.995 C 214.220 429.484, 214.928 429.579, 217.407 431.910 C 220.771 435.073, 221.641 439.860, 219.578 443.849 C 218.699 445.549, 217.158 447.380, 216.154 447.917 C 213.714 449.223, 183.305 449.096, 180.389 447.768 C 177.794 446.585, 175 441.403, 175 437.773 C 175 431.749, 166.490 428.954, 161.421 433.314 C 159.126 435.288, 158.747 436.365, 158.843 440.640 C 159.134 453.533, 168.776 463.535, 182.079 464.741 C 187.402 465.224, 187.842 465.458, 188.370 468.099 C 189.211 472.307, 192.401 475, 196.545 475 C 200.829 475, 205 471.322, 205 467.545 C 205 465.143, 205.294 464.999, 210.250 464.990 C 224.363 464.964, 236.361 452.376, 236.453 437.500 C 236.525 425.754, 227.733 415.539, 215.333 412.965 C 211.915 412.256, 203.643 411.933, 194.367 412.147 L 179.047 412.500 176.323 409.777 C 171.158 404.613, 173.565 396.048, 180.741 394.055 C 185.528 392.726, 206.363 392.695, 211.100 394.011 C 215.883 395.340, 217.813 397.674, 218.888 403.431 C 219.957 409.153, 221.484 410.880, 226.144 411.636 C 228.953 412.092, 230.232 411.704, 232.575 409.686 C 235.174 407.448, 235.486 406.567, 235.377 401.792 C 235.077 388.703, 224.064 378.073, 210.750 378.022 L 205 378 205 374.582 C 205 369.785, 204.177 368.143, 200.928 366.463 C 197.495 364.687, 196.233 364.659, 193.020 366.284" stroke="none" fill="#fecd04" fill-rule="evenodd"/><path d="M 196 30.313 C 196 30.485, 197.463 31.948, 199.250 33.563 L 202.500 36.500 199.563 33.250 C 196.825 30.221, 196 29.540, 196 30.313 M 175.856 37.504 C 172.274 39.467, 170.855 43.749, 172.494 47.649 C 173.950 51.111, 177.791 53.018, 183.792 53.257 C 187.145 53.391, 188.534 52.863, 190.975 50.524 C 194.501 47.146, 194.796 44.282, 191.988 40.712 C 189.152 37.107, 179.928 35.273, 175.856 37.504 M 165 57.709 C 165.825 58.013, 167.400 58.990, 168.500 59.880 C 170.483 61.486, 170.484 61.481, 168.595 59.250 C 167.547 58.013, 165.972 57.036, 165.095 57.079 C 163.741 57.146, 163.727 57.241, 165 57.709 M 129.008 95.542 L 97.533 117.085 97.517 127.792 C 97.502 137.099, 97.190 139.089, 95.133 143 C 93.832 145.475, 92.186 148.175, 91.476 149 C 90.382 150.270, 93.250 154.980, 110.203 179.750 L 130.223 209 206.111 209 C 247.850 209, 282 208.807, 282 208.570 C 282 208.334, 262.162 179.421, 237.915 144.320 C 206.566 98.937, 193.349 80.571, 192.165 80.746 C 178.765 82.729, 170.002 81.397, 164.172 76.491 C 162.544 75.121, 161.047 74, 160.847 74 C 160.647 74, 146.319 83.694, 129.008 95.542 M 49.437 113.250 L 46.500 116.500 49.750 113.563 C 51.538 111.948, 53 110.485, 53 110.313 C 53 109.540, 52.175 110.221, 49.437 113.250 M 58.451 118.131 C 55.470 119.579, 53.965 122.496, 53.299 128.122 C 52.620 133.858, 53.988 137.218, 57.691 138.905 C 62.860 141.260, 68.481 135.290, 69.708 126.142 C 70.154 122.817, 69.829 122.034, 67.031 119.679 C 63.665 116.847, 61.790 116.509, 58.451 118.131 M 148.871 121.006 C 142.325 124.465, 138.003 131.629, 138.015 139 C 138.022 142.945, 142.479 151.493, 145.740 153.815 C 155.911 161.057, 169.506 157.770, 175.152 146.703 C 178 141.119, 177.399 132.713, 173.759 127.212 C 168.760 119.658, 156.980 116.721, 148.871 121.006 M 76.453 143.250 L 72.500 147.500 76.750 143.547 C 80.702 139.871, 81.460 139, 80.703 139 C 80.540 139, 78.627 140.912, 76.453 143.250 M 201.300 181.805 C 191.320 185.363, 182.893 192.979, 178.402 202.500 L 176.043 207.500 213.176 207.762 C 233.599 207.907, 250.529 207.804, 250.799 207.535 C 251.068 207.265, 250.509 205.002, 249.555 202.505 C 246.977 195.755, 239.035 187.635, 231.273 183.814 C 225.589 181.015, 223.477 180.537, 215.602 180.265 C 208.660 180.026, 205.266 180.391, 201.300 181.805 M 300.921 207.250 C 302.016 208.698, 303.863 209, 311.622 209 C 320.283 209, 322.773 208.214, 319.845 206.405 C 319.130 205.962, 318.962 206.130, 319.405 206.845 C 320.440 208.522, 302.883 208.431, 300.998 206.750 C 299.806 205.687, 299.794 205.761, 300.921 207.250 M 193.750 355.723 C 195.537 355.945, 198.463 355.945, 200.250 355.723 C 202.037 355.502, 200.575 355.320, 197 355.320 C 193.425 355.320, 191.963 355.502, 193.750 355.723 M 242 374.500 C 243.866 376.425, 245.617 378, 245.892 378 C 246.167 378, 244.866 376.425, 243 374.500 C 241.134 372.575, 239.383 371, 239.108 371 C 238.833 371, 240.134 372.575, 242 374.500 M 191.296 412.744 C 195.583 412.932, 202.333 412.931, 206.296 412.742 C 210.258 412.552, 206.750 412.399, 198.500 412.400 C 190.250 412.401, 187.008 412.556, 191.296 412.744 M 236.252 437.500 C 236.263 439.700, 236.468 440.482, 236.707 439.238 C 236.946 437.994, 236.937 436.194, 236.687 435.238 C 236.437 434.282, 236.241 435.300, 236.252 437.500 M 185.750 449.706 C 186.988 449.944, 189.012 449.944, 190.250 449.706 C 191.488 449.467, 190.475 449.272, 188 449.272 C 185.525 449.272, 184.512 449.467, 185.750 449.706 M 203.768 449.725 C 205.565 449.947, 208.265 449.943, 209.768 449.715 C 211.271 449.486, 209.800 449.304, 206.500 449.310 C 203.200 449.315, 201.971 449.502, 203.768 449.725" stroke="none" fill="#9b9b1b" fill-rule="evenodd"/><path d="M 172.500 10.992 C 168.832 12.141, 173.493 9.037, 101.910 58 C 69.344 80.275, 40.942 100.037, 38.794 101.916 C 28.304 111.094, 23.794 129.540, 28.811 142.746 C 29.869 145.528, 41.858 163.833, 55.453 183.422 L 80.172 219.040 77.152 222.480 C 72.350 227.948, 69.206 234.023, 67.558 241.014 C 66.246 246.581, 66.027 260.351, 66.015 338.201 C 66.004 401.646, 66.338 430.494, 67.125 434.201 C 69.874 447.143, 78.497 458.164, 90.507 464.080 C 97.433 467.493, 97.482 467.501, 113.942 467.840 C 129.523 468.161, 130.520 468.299, 131.928 470.340 C 135.501 475.519, 143.961 483.498, 150.561 487.912 C 165.860 498.145, 182.073 502.629, 200.448 501.708 C 223.323 500.561, 242.517 491.465, 257.563 474.641 L 263.500 468.001 346.556 468.001 C 428.353 468, 429.706 467.968, 435.845 465.895 C 447.359 462.006, 457.339 452.279, 462.165 440.240 C 464.313 434.881, 464.487 432.840, 464.794 409.463 L 465.122 384.426 470.311 382.594 C 477.232 380.149, 482.485 374.580, 484.542 367.504 C 485.875 362.919, 486.079 357.038, 485.814 330.772 C 485.531 302.545, 485.319 299.159, 483.636 296 C 479.948 289.075, 474.153 284.423, 467.500 283.044 L 464.500 282.422 464 261.461 L 463.500 240.500 460.335 233.820 C 456.758 226.269, 450.504 218.960, 444.313 215.095 L 440.126 212.480 459.123 190.490 C 481.682 164.376, 483.471 161.471, 483.439 151 C 483.405 139.752, 480.590 134.434, 469.378 124.439 C 441.733 99.793, 362.175 32.087, 358.111 29.746 C 351.721 26.067, 343.673 24.620, 337.364 26.017 C 326.680 28.383, 325.786 29.198, 294.447 65.128 C 278.137 83.827, 264.677 98.985, 264.536 98.813 C 264.395 98.641, 252.916 82.075, 239.028 62 C 225.140 41.925, 211.914 23.563, 209.638 21.196 C 207.362 18.829, 202.700 15.511, 199.277 13.822 C 194.065 11.251, 191.629 10.695, 184.277 10.402 C 179.450 10.210, 174.150 10.475, 172.500 10.992 M 172.688 27.426 C 168.741 29.559, 53.020 109.775, 50.144 112.372 C 48.847 113.543, 46.489 116.750, 44.903 119.500 C 41.484 125.427, 40.932 134.034, 43.636 139.263 C 44.536 141.003, 56.029 158.063, 69.176 177.174 C 92.989 211.787, 93.090 211.916, 95.790 210.870 C 97.281 210.293, 101.345 209.523, 104.822 209.160 L 111.144 208.500 92.089 181 C 70.689 150.116, 70.533 149.742, 76.619 143.946 C 83.142 137.735, 84.782 129.796, 81 122.739 C 78.537 118.144, 78.459 114.844, 80.750 112.211 C 82.427 110.284, 154.042 60.637, 158.809 58.097 C 162.030 56.381, 166.204 57.556, 169.609 61.138 C 171.199 62.810, 173.715 64.813, 175.200 65.589 C 179.170 67.663, 187.367 67.364, 192.051 64.974 C 200.258 60.787, 196.894 56.769, 251.952 136.535 L 301.625 208.500 311.313 208.786 C 316.641 208.944, 320.973 208.719, 320.941 208.286 C 320.908 207.854, 293.571 168.137, 260.191 120.027 C 211.482 49.823, 198.645 31.957, 195.169 29.531 C 191.416 26.911, 189.815 26.467, 183.169 26.207 C 177.730 25.994, 174.682 26.349, 172.688 27.426 M 336.966 41.820 C 336.123 42.194, 334.528 43.175, 333.422 44 C 331.233 45.633, 274 111.586, 274 112.475 C 274 112.774, 279.247 120.552, 285.661 129.760 C 292.074 138.967, 300.737 151.465, 304.911 157.534 C 309.085 163.603, 318.783 177.665, 326.462 188.784 L 340.423 209 381.616 209 L 422.809 209 443.539 185.250 C 454.940 172.188, 465.106 160.150, 466.130 158.500 C 468.423 154.806, 468.518 149.895, 466.384 145.397 C 465.318 143.150, 453.521 132.215, 431.698 113.246 C 413.510 97.436, 388.924 76.004, 377.064 65.620 C 349.245 41.263, 348.857 40.982, 343.100 41.070 C 340.570 41.109, 337.810 41.446, 336.966 41.820 M 129.008 95.542 L 97.533 117.085 97.517 127.792 C 97.502 137.099, 97.190 139.089, 95.133 143 C 93.832 145.475, 92.186 148.175, 91.476 149 C 90.382 150.270, 93.250 154.980, 110.203 179.750 L 130.223 209 206.111 209 C 247.850 209, 282 208.807, 282 208.570 C 282 208.334, 262.162 179.421, 237.915 144.320 C 206.566 98.937, 193.349 80.571, 192.165 80.746 C 178.765 82.729, 170.002 81.397, 164.172 76.491 C 162.544 75.121, 161.047 74, 160.847 74 C 160.647 74, 146.319 83.694, 129.008 95.542 M 95.703 228.088 C 89.451 231.314, 84.855 237.112, 82.955 244.166 C 82.319 246.530, 82.057 281.345, 82.230 340.682 L 82.500 433.500 85.411 438.754 C 90.714 448.325, 97.404 451.804, 112.249 452.708 C 121.920 453.297, 122.303 453.244, 121.505 451.411 C 121.046 450.360, 119.587 445.450, 118.261 440.500 C 116.121 432.507, 115.902 429.990, 116.305 418 C 116.821 402.666, 118.627 395.468, 125.084 383 C 135.160 363.547, 154.290 348.278, 176 342.360 C 186.118 339.602, 208.023 339.842, 218.443 342.826 C 246.695 350.914, 268.388 373.473, 275.126 401.772 C 278.752 417.001, 277.982 430.620, 272.411 449.791 L 271.746 452.081 349.623 451.791 L 427.500 451.500 432.757 449.124 C 438.612 446.477, 443.329 441.688, 446.110 435.565 C 447.737 431.983, 447.959 428.678, 447.978 407.750 L 448 384 417.210 384 C 383.781 384, 380.188 383.569, 369.171 378.242 C 361.954 374.752, 351.357 364.231, 347.777 357 C 341.485 344.292, 340.455 329.544, 344.954 316.581 C 350.347 301.044, 363.703 288.587, 379.500 284.361 C 383.164 283.381, 392.850 283.021, 415.750 283.012 L 447 283 446.990 263.750 C 446.981 245.696, 446.836 244.189, 444.649 239.493 C 443.366 236.739, 440.654 233.025, 438.621 231.241 C 430.964 224.518, 444.380 224.995, 264.628 225.048 L 101.500 225.096 95.703 228.088 M 382.286 299.451 C 366.925 304.252, 357.514 317.274, 357.680 333.500 C 357.825 347.659, 365.585 359.763, 378.278 365.626 L 384.500 368.500 424.836 368.500 L 465.171 368.500 467.586 365.694 L 470 362.888 470 333.367 L 470 303.846 467.077 300.923 L 464.154 298 425.327 298.067 C 396.171 298.117, 385.450 298.462, 382.286 299.451 M 188.500 355.715 C 156.097 360.196, 131.035 388.668, 131.035 421 C 131.035 436.536, 137.383 452.672, 148.094 464.361 C 161.746 479.260, 177.229 486.158, 196.896 486.104 C 214.097 486.056, 227.891 480.582, 240.516 468.792 C 249.427 460.470, 254.190 453.483, 258.308 442.695 C 261.247 434.994, 261.437 433.686, 261.454 421 C 261.471 408.851, 261.206 406.766, 258.807 400.165 C 254.989 389.658, 250.518 382.678, 242.304 374.396 C 228.444 360.422, 207.371 353.105, 188.500 355.715 M 191.527 367.356 C 190.432 368.158, 189.433 370.510, 189.086 373.106 L 188.500 377.500 182.743 378.119 C 167.538 379.753, 157.948 391.258, 159.294 406.250 C 159.904 413.038, 163.448 419.714, 168.477 423.550 C 174.255 427.957, 179.756 429, 197.225 429 C 206.970 429, 213.978 429.433, 215.316 430.117 C 221.622 433.342, 222.908 440.834, 218.082 446.234 L 215.164 449.500 200.332 449.653 C 179.669 449.867, 176.823 448.729, 175.112 439.569 C 173.964 433.423, 172.037 431.545, 166.880 431.545 C 159.622 431.545, 157.027 438.155, 160.461 447.890 C 163.817 457.402, 171.990 463.507, 182.893 464.647 C 188.754 465.259, 189 465.397, 189 468.070 C 189 471.125, 192.963 475, 196.088 475 C 200.617 475, 205 470.867, 205 466.595 C 205 465.725, 207.082 465.067, 211.195 464.637 C 226.375 463.051, 236 452.380, 236 437.138 C 236 430.113, 233.207 424.233, 227.475 419.187 C 221.254 413.711, 217.816 413, 197.568 413 C 187.341 413, 179.056 412.565, 177.945 411.970 C 175.519 410.672, 173 405.881, 173 402.565 C 173 401.172, 174.312 398.562, 175.916 396.766 L 178.831 393.500 195.448 393.182 L 212.065 392.865 215.532 396.332 C 217.970 398.770, 219 400.704, 219 402.844 C 219 410, 228.030 413.970, 233 409 C 236.979 405.021, 235.054 393.760, 229.232 386.958 C 224.690 381.651, 218.950 378.846, 211.394 378.239 L 205.229 377.745 204.699 373.795 C 204.408 371.622, 203.387 368.980, 202.430 367.922 C 200.368 365.645, 194.299 365.329, 191.527 367.356" stroke="none" fill="#75462c" fill-rule="evenodd"/><path d="M 95.703 228.088 C 89.451 231.314, 84.855 237.112, 82.955 244.166 C 82.319 246.530, 82.057 281.345, 82.230 340.682 L 82.500 433.500 84.708 437.628 C 87.542 442.926, 95.226 449.690, 99.877 450.983 C 104.074 452.148, 121.006 452.363, 120.987 451.250 C 120.980 450.837, 120.025 447.575, 118.864 444 C 115.575 433.868, 115.081 413.107, 117.864 401.950 C 123.793 378.179, 139.205 358.858, 160.500 348.498 C 174.093 341.885, 180.097 340.558, 196.500 340.542 C 212.367 340.525, 218.810 341.839, 230.911 347.554 C 267.597 364.881, 285.888 406.056, 274.089 444.750 L 272.183 451 350.395 451 L 428.607 451 433.780 448.422 C 439.526 445.559, 443.390 441.517, 446.133 435.500 C 447.731 431.993, 447.959 428.574, 447.978 407.750 L 448 384 417.549 384 C 399.182 384, 384.996 383.561, 381.799 382.895 C 363.059 378.987, 347.013 362.941, 343.105 344.201 C 339.712 327.932, 344.327 311.242, 355.577 299.090 C 362.162 291.977, 368.286 287.922, 377 284.905 C 383.081 282.799, 385.546 282.625, 415.250 282.215 L 447 281.776 446.978 263.138 C 446.958 246.555, 446.731 244.004, 444.919 240 C 442.184 233.957, 438.509 230.224, 432.500 227.383 L 427.500 225.020 264.500 225.058 L 101.500 225.096 95.703 228.088 M 382.286 299.451 C 366.925 304.252, 357.514 317.274, 357.680 333.500 C 357.825 347.659, 365.585 359.763, 378.278 365.626 L 384.500 368.500 424.836 368.500 L 465.171 368.500 467.586 365.694 L 470 362.888 470 333.367 L 470 303.846 467.077 300.923 L 464.154 298 425.327 298.067 C 396.171 298.117, 385.450 298.462, 382.286 299.451" stroke="none" fill="#f56867" fill-rule="evenodd"/></svg>