<svg xmlns="http://www.w3.org/2000/svg" width="512" height="512" viewBox="0 0 512 512" version="1.1"><path d="M 99 4.608 C 86.241 8.034, 73.111 16.283, 66.238 25.192 C 61.290 31.605, 56.711 41.125, 54.306 50 C 51.870 58.986, 51.898 79.047, 54.359 88 C 58.259 102.188, 66.490 114.996, 76.256 122.070 L 80.012 124.792 71.256 125.957 C 55.500 128.054, 39.383 135.661, 29.272 145.772 C 23.771 151.272, 14.681 164.201, 13.434 168.299 C 13.065 169.509, 12.214 171.175, 11.542 172 C 9.587 174.400, 3.989 198.894, 2.463 211.727 C 0.899 224.871, 0.554 277.035, 1.891 298 C 2.991 315.245, 5.730 320.324, 16.512 325.121 C 24.361 328.613, 32.430 328.146, 43.107 323.582 C 45.708 322.471, 46.222 334.514, 44.798 363.127 C 42.874 401.755, 43.099 456.101, 45.231 468 C 49.024 489.168, 54.734 500.219, 64.463 505.221 C 67.701 506.885, 70.157 507.234, 77.879 507.127 L 87.332 506.995 96.916 501.441 C 102.187 498.386, 107.224 495.041, 108.109 494.007 C 109.660 492.195, 109.859 492.272, 113.609 496.150 C 118.239 500.937, 124.471 504.296, 132.571 506.372 C 137.597 507.659, 139.421 507.696, 144.547 506.612 C 161.359 503.056, 171.316 493.907, 175.713 477.975 C 177.259 472.373, 177.466 467.871, 177.248 444.586 L 176.995 417.673 181.858 425.764 C 190.046 439.388, 195.977 447.066, 206.454 457.610 C 222.593 473.851, 239.712 485.215, 259.988 493.147 C 271.105 497.496, 289.168 502.434, 297.509 503.405 C 311.095 504.987, 330.288 505.745, 337.500 504.986 C 341.900 504.523, 348.650 503.855, 352.500 503.502 C 361.261 502.698, 365.167 501.841, 382.005 497.029 C 425.033 484.732, 459.892 459.823, 483.545 424.477 C 500.422 399.254, 508.568 373.114, 509.713 340.500 C 511.097 301.073, 502.022 268.949, 480.193 236 C 469.489 219.843, 448.061 198.385, 432 187.739 C 402.613 168.261, 370.366 158.085, 337.820 158.020 L 328.140 158 329.070 154.757 C 330.392 150.148, 330.221 144.466, 328.649 140.702 C 327.070 136.922, 321.016 131.322, 316.444 129.412 C 314.683 128.676, 312.980 127.390, 312.659 126.554 C 312.247 125.479, 310.674 125.045, 307.288 125.070 C 304.655 125.090, 300.025 124.614, 297 124.012 C 286.233 121.871, 244.585 121.773, 210 123.807 C 188.750 125.056, 177.070 125.381, 176.259 124.744 C 175.577 124.209, 173.552 124.082, 171.759 124.463 C 165.166 125.864, 157.918 126.177, 156.640 125.116 C 155.826 124.441, 152.871 124.274, 148.673 124.666 C 140.824 125.399, 140.259 124.479, 146.079 120.446 C 163.252 108.545, 172.507 84.569, 169.051 60.935 C 164.990 33.165, 147.082 10.368, 124.632 4.390 C 118.011 2.627, 105.998 2.730, 99 4.608 M 104.651 14.974 C 101.723 15.539, 99.209 17.325, 94.151 22.433 L 87.500 29.148 100 21.946 C 106.875 17.985, 112.688 14.577, 112.917 14.372 C 113.551 13.806, 108.969 14.139, 104.651 14.974 M 129.468 30.081 C 119.593 37.644, 119.277 37.991, 125.500 34.438 C 137.569 27.546, 139.282 26.432, 139.218 25.518 C 139.065 23.332, 137.047 24.276, 129.468 30.081 M 142.197 37.087 C 136.518 41.263, 136.904 41.656, 143 37.905 C 145.750 36.213, 148 34.642, 148 34.414 C 148 33.355, 146.049 34.254, 142.197 37.087 M 141 53.109 C 128.192 62.960, 127.992 63.172, 135.500 58.961 C 151.128 50.195, 153.581 48.505, 153.217 46.750 C 153.017 45.788, 152.549 45.008, 152.177 45.017 C 151.805 45.026, 146.775 48.668, 141 53.109 M 70.750 61.623 C 67.588 63.529, 65 65.774, 65 66.611 C 65 67.619, 67.027 66.540, 71 63.419 C 74.300 60.826, 77 58.546, 77 58.352 C 77 57.850, 77.076 57.811, 70.750 61.623 M 151.500 62.525 L 148.500 65.039 152.250 62.921 C 154.313 61.756, 156 60.622, 156 60.401 C 156 59.393, 154.252 60.218, 151.500 62.525 M 153.385 75.171 C 148.507 78.842, 148.313 79.389, 152.750 76.959 C 155.088 75.679, 157 74.265, 157 73.816 C 157 72.615, 156.565 72.778, 153.385 75.171 M 70.250 77.115 C 67.043 79.169, 66.284 80.034, 67.750 79.964 C 68.578 79.924, 74.802 75.003, 74 75.022 C 73.725 75.028, 72.037 75.970, 70.250 77.115 M 82.609 83.487 C 70.032 90.872, 69.726 91.121, 70.561 93.298 C 71.067 94.618, 73.131 93.450, 81.312 87.216 C 97.973 74.518, 97.995 74.454, 82.609 83.487 M 81.066 101.211 C 78.077 102.952, 76.152 104.551, 76.787 104.762 C 77.421 104.974, 79.642 103.901, 81.720 102.379 C 89.148 96.938, 88.964 96.608, 81.066 101.211 M 90.658 109.222 C 86.033 111.958, 84.230 113.524, 85.092 114.057 C 85.904 114.559, 88.478 113.186, 92.183 110.275 C 95.382 107.761, 98 105.546, 98 105.352 C 98 104.863, 98.256 104.728, 90.658 109.222 M 100.137 118.058 C 98.288 119.185, 97.024 120.358, 97.330 120.663 C 97.866 121.199, 104 117.308, 104 116.432 C 104 115.756, 103.716 115.876, 100.137 118.058 M 120.500 119.474 C 118.145 120.925, 117.197 121.950, 118.194 121.969 C 119.126 121.986, 121.151 120.889, 122.694 119.532 C 126.277 116.380, 125.554 116.361, 120.500 119.474 M 243.980 138.628 L 234.500 148.256 240.554 144.878 C 258.414 134.913, 265.960 130.423, 265.979 129.750 C 265.991 129.338, 263.179 129, 259.730 129 L 253.460 129 243.980 138.628 M 212.500 130.913 C 208.141 131.425, 204.232 133.658, 182 148.341 C 167.975 157.603, 156.050 165.674, 155.500 166.274 C 154.950 166.875, 155.625 166.688, 157 165.858 C 158.375 165.028, 172.325 156.997, 188 148.010 C 212.198 134.136, 220.285 129.317, 217.950 130.163 C 217.703 130.253, 215.250 130.590, 212.500 130.913 M 273.479 140.121 C 263.433 150.327, 262.542 150.493, 283.766 138.209 L 294.031 132.267 290.266 131.644 C 283.246 130.484, 282.690 130.765, 273.479 140.121 M 71 132.712 C 69.625 132.938, 65.125 136.282, 61 140.141 C 56.875 144.001, 53.950 146.957, 54.500 146.710 C 57.205 145.493, 79 132.778, 79 132.417 C 79 131.942, 74.712 132.100, 71 132.712 M 96.249 133.944 L 93.998 135.822 96.661 146.661 C 98.125 152.622, 99.437 157.649, 99.576 157.831 C 99.715 158.013, 100.822 157.631, 102.035 156.981 C 103.521 156.186, 104.019 156.160, 103.562 156.900 C 103.085 157.672, 105.871 158, 112.902 158 L 122.923 158 123.911 154.250 C 127.402 141.003, 129.189 132.855, 128.708 132.375 C 128.403 132.070, 125.055 133.660, 121.268 135.910 C 113.481 140.536, 111.765 141.011, 114.623 137.750 C 119.944 131.679, 120.264 131.997, 108.872 132.033 C 100.223 132.061, 98.126 132.378, 96.249 133.944 M 177.500 132.909 C 174.633 133.382, 168.190 137.224, 154.750 146.475 C 144.438 153.574, 136 160.004, 136 160.764 C 136 161.721, 137.772 161.135, 141.750 158.864 C 191.394 130.525, 191.225 130.648, 177.500 132.909 M 301.914 142.686 L 296.500 148.268 301.751 145.384 C 304.640 143.798, 307.976 141.768, 309.165 140.873 C 311.307 139.260, 311.308 139.235, 309.327 138.175 C 307.599 137.250, 306.594 137.862, 301.914 142.686 M 76.948 149.116 C 69.040 155.234, 67.382 156.968, 72 154.292 C 73.925 153.176, 77.638 151.036, 80.250 149.537 C 82.862 148.037, 85 146.429, 85 145.964 C 85 143.707, 82.853 144.547, 76.948 149.116 M 206.526 157.561 L 195.552 164 200.555 164 C 205.385 164, 205.780 163.775, 212 157.500 C 215.543 153.925, 218.230 151.028, 217.971 151.061 C 217.712 151.095, 212.562 154.020, 206.526 157.561 M 236.081 158.247 C 225.256 164.524, 223.973 165.535, 226.081 166.124 C 232.786 167.999, 234.150 167.381, 241.816 158.999 C 245.840 154.600, 248.990 151.010, 248.816 151.023 C 248.642 151.035, 242.912 154.286, 236.081 158.247 M 266.018 159.090 L 252.537 167 258.542 167 L 264.547 167 272.500 159 C 276.874 154.600, 280.239 151.040, 279.977 151.090 C 279.714 151.139, 273.433 154.739, 266.018 159.090 M 296.500 159.112 C 287.566 164.316, 287.563 164.319, 293.500 163.482 C 296.768 163.021, 299.116 162.036, 300.278 160.638 C 302.148 158.391, 304.271 154.988, 303.785 155.018 C 303.628 155.027, 300.350 156.870, 296.500 159.112 M 99 169.667 C 99 173.855, 99.267 173.794, 100.800 169.250 C 101.702 166.575, 101.640 166, 100.448 166 C 99.447 166, 99 167.133, 99 169.667 M 106.500 170.112 C 102.650 172.355, 99.404 174.280, 99.287 174.391 C 99.170 174.502, 98.010 180.059, 96.710 186.739 C 94.347 198.879, 94.347 198.885, 96.423 197.807 C 98.318 196.823, 98.293 196.953, 96.148 199.287 C 92.718 203.018, 91.272 217.334, 93.572 224.793 C 93.887 225.816, 94.444 225.838, 96.235 224.898 C 98.434 223.744, 98.449 223.767, 96.750 225.683 C 94.427 228.304, 94.549 229.924, 97.331 233.400 L 99.651 236.300 105.879 232.650 C 109.305 230.643, 112.396 229, 112.750 229 C 113.103 229, 112.053 230.463, 110.415 232.250 C 103.057 240.282, 103.185 239.630, 108.473 242.199 L 113.177 244.485 117.839 241.906 C 121.094 240.106, 123.481 237.708, 125.750 233.958 C 129.439 227.862, 130.116 224.860, 127.289 227.128 C 126.110 228.074, 126.265 227.520, 127.789 225.346 C 130.051 222.119, 130.490 218.698, 129.364 213.070 C 128.893 210.713, 128.311 210.035, 127.114 210.448 C 125.821 210.894, 125.854 210.729, 127.279 209.621 C 128.981 208.297, 128.965 207.804, 126.929 198.368 C 125.758 192.941, 124.662 188.354, 124.493 188.176 C 124.324 187.998, 122.682 188.613, 120.843 189.543 L 117.500 191.234 120.760 187.809 C 123.960 184.448, 124.002 184.283, 123.010 179.055 C 122.455 176.125, 122 171.988, 122 169.864 L 122 166 117.750 166.018 C 114.611 166.031, 111.671 167.101, 106.500 170.112 M 318 168.023 C 310.575 168.412, 302.475 169.320, 300 170.040 C 297.525 170.761, 295.018 171.270, 294.430 171.173 C 293.841 171.075, 287.544 172.589, 280.436 174.537 C 256.783 181.019, 237.372 192.034, 219.683 209.011 C 199.407 228.470, 187.530 249.042, 177.542 282 C 176.626 285.025, 175.617 290.650, 175.302 294.500 C 174.987 298.350, 174.399 301.950, 173.997 302.500 C 173.595 303.050, 172.974 305.801, 172.617 308.614 C 172.116 312.553, 172.316 314.017, 173.484 314.986 C 175.409 316.584, 175.415 318.411, 173.500 320 C 170.523 322.471, 172.096 352.550, 176.114 370 C 178.223 379.159, 182.802 394.340, 185.296 400.445 C 188.334 407.879, 196.402 423.811, 198.583 426.683 C 199.912 428.434, 201 430.194, 201 430.595 C 201 433.906, 227.813 463.288, 235 467.853 C 236.375 468.726, 239.750 471.108, 242.500 473.145 C 250.264 478.896, 268.347 487.734, 278.921 490.945 C 310.007 500.385, 333.393 501.149, 373.111 494.023 C 395.859 489.941, 419.870 478.254, 440.077 461.426 C 468.881 437.439, 488.865 397.929, 493.344 356.114 C 494.845 342.104, 494.691 320.338, 493.025 310.853 C 489.961 293.413, 484.022 270.874, 481.877 268.550 C 481.395 268.027, 481 266.970, 481 266.199 C 481 264.103, 470.853 244.429, 465.941 237 C 456.608 222.887, 441.006 205.631, 432.910 200.467 C 430.935 199.207, 428.636 197.493, 427.800 196.657 C 425.007 193.864, 413.686 186.982, 405.152 182.890 C 393.963 177.524, 381.878 173.325, 370.840 170.966 C 362.338 169.149, 339.801 166.813, 334.105 167.158 C 332.672 167.245, 325.425 167.634, 318 168.023 M 28.052 172.941 C 23.039 175.847, 19.269 178.744, 18.780 180.065 C 18.328 181.289, 18.090 182.423, 18.252 182.586 C 18.490 182.824, 35.126 170.207, 36.858 168.475 C 38.020 167.313, 35.938 168.369, 28.052 172.941 M 177 213.224 L 177 250.448 181.641 242.990 C 198.506 215.891, 220.431 195.188, 247.470 180.833 L 256.500 176.038 216.750 176.019 L 177 176 177 213.224 M 152.736 192.410 C 142.882 199.079, 136.993 203.574, 143 199.841 C 144.375 198.987, 149.662 195.922, 154.750 193.031 C 159.838 190.140, 164 187.150, 164 186.387 C 164 185.624, 163.887 185.028, 163.750 185.062 C 163.613 185.097, 158.656 188.403, 152.736 192.410 M 25.292 192.045 C 17.887 196.403, 15.242 198.466, 15.660 199.555 C 16.139 200.806, 16.761 200.665, 19.368 198.714 C 21.091 197.425, 25.538 194.223, 29.250 191.598 C 35.035 187.506, 36.864 185.937, 35.750 186.018 C 35.612 186.028, 30.906 188.740, 25.292 192.045 M 59.753 198.887 C 57.142 200.419, 55.289 201.956, 55.636 202.303 C 56.182 202.848, 65 197.224, 65 196.330 C 65 195.824, 64.829 195.907, 59.753 198.887 M 153.133 206.479 C 141.249 214.542, 139.553 216.376, 148.500 211.488 C 159.610 205.419, 163 203.081, 163 201.487 C 163 200.669, 162.887 200.028, 162.750 200.061 C 162.613 200.095, 158.285 202.983, 153.133 206.479 M 31 215.537 C 16.974 223.703, 15.466 225.055, 15.100 229.788 C 14.975 231.394, 44.828 211.151, 46.125 208.750 C 46.645 207.787, 46.717 207.021, 46.285 207.047 C 45.853 207.073, 38.975 210.893, 31 215.537 M 329.072 211.928 C 327.066 213.934, 325.406 221.619, 326.267 224.912 C 326.682 226.500, 326.043 226.916, 322.343 227.471 C 302.884 230.389, 286.783 244.096, 279.926 263.580 C 277.001 271.891, 276.278 287.338, 278.394 296.314 C 281.961 311.444, 291.507 324.114, 304.078 330.402 C 310.074 333.402, 313.514 334.434, 324.773 336.610 L 327.046 337.050 326.959 383.590 L 326.873 430.131 323.686 429.441 C 315.140 427.591, 303.990 420.095, 298.072 412.219 C 292.746 405.131, 290.081 398.915, 288.732 390.433 C 287.571 383.138, 287.503 383.018, 283.661 381.481 C 280.133 380.070, 279.542 380.070, 277.383 381.484 C 269.713 386.510, 281.696 413.669, 298.044 428.311 C 304.493 434.088, 313.372 438.180, 320.737 438.771 L 327 439.274 327 446.662 C 327 453.672, 327.131 454.099, 329.565 455.025 C 334.718 456.984, 338.309 453.019, 339 444.608 L 339.500 438.519 344.818 437.758 C 360.703 435.484, 376.589 423.017, 383.597 407.324 C 387.293 399.050, 389.358 386.906, 388.562 378.126 C 386.191 351.952, 368.510 332.657, 343.908 329.393 L 339 328.742 339 281.941 L 339 235.140 341.852 235.958 C 360.303 241.249, 373.990 256.656, 377.004 275.527 C 378.190 282.948, 378.698 283.624, 383.837 284.613 C 388.681 285.545, 390.298 283.502, 390.140 276.650 C 389.975 269.494, 385.076 258.609, 377.474 248.509 C 367.175 234.824, 355.377 226.982, 344.614 226.665 L 339.016 226.500 339.008 218.867 C 339.001 211.799, 338.833 211.189, 336.750 210.630 C 332.937 209.608, 331.077 209.923, 329.072 211.928 M 149.680 224.384 C 143.180 228.958, 137.024 234.075, 136.002 235.757 C 134.295 238.564, 135.303 238.141, 148.321 230.596 C 161.485 222.966, 162.522 222.150, 162.813 219.189 C 162.986 217.435, 162.761 216.016, 162.313 216.035 C 161.866 216.054, 156.181 219.811, 149.680 224.384 M 29.080 234.750 C 16.435 242.073, 12.707 245.041, 14.235 246.568 C 15.018 247.351, 43 229.174, 43 227.882 C 43 227.397, 42.879 227, 42.732 227 C 42.584 227, 36.441 230.488, 29.080 234.750 M 318.798 236.931 C 307.023 240.696, 299.574 247.037, 294.048 258 C 283.981 277.973, 288.599 304.524, 304.391 317.464 C 309.561 321.701, 320.586 326.998, 324.235 326.999 L 326.970 327 326.959 281 C 326.950 245.373, 326.671 235.012, 325.724 235.054 C 325.051 235.083, 321.934 235.928, 318.798 236.931 M 113 250.082 L 110.500 252.120 113.750 250.535 C 115.537 249.662, 117 248.735, 117 248.474 C 117 247.480, 115.407 248.120, 113 250.082 M 25.500 264.007 C 18.900 267.840, 13.344 271.710, 13.154 272.606 C 12.744 274.539, 12.136 274.866, 26 265.689 C 36.157 258.964, 38.895 256.979, 37.950 257.020 C 37.703 257.030, 32.100 260.175, 25.500 264.007 M 144.500 271.138 C 134.050 278.870, 125.275 285.436, 125 285.729 C 124.448 286.318, 127.651 284.513, 149.307 272.033 C 163.528 263.838, 164 263.460, 164 260.283 C 164 258.477, 163.887 257.018, 163.750 257.040 C 163.613 257.061, 154.950 263.406, 144.500 271.138 M 65.261 270.302 C 61.280 272.611, 58.017 275.085, 58.011 275.801 C 58.005 276.525, 60.991 275.008, 64.750 272.377 C 75.883 264.587, 76.010 264.069, 65.261 270.302 M 28 276.925 C 20.575 281.255, 14.355 285.518, 14.177 286.399 C 13.999 287.280, 14.090 288, 14.380 288 C 14.670 288, 20.665 284.104, 27.703 279.342 C 47.187 266.161, 47.243 265.703, 28 276.925 M 142.227 291.934 C 124.603 304.972, 121.970 307.065, 125.500 305.232 C 131.479 302.127, 157.697 286.647, 158.829 285.554 C 159.561 284.847, 160.011 283.119, 159.829 281.713 C 159.516 279.284, 158.635 279.795, 142.227 291.934 M 31 290.123 C 23.575 294.500, 16.977 298.400, 16.337 298.790 C 15.053 299.574, 15.706 305, 17.084 305 C 17.951 305, 41.069 289.027, 44.250 286.229 C 45.999 284.691, 46.666 281.926, 45.250 282.083 C 44.837 282.129, 38.425 285.747, 31 290.123 M 67.750 287.768 C 62.388 290.881, 58 293.992, 58 294.681 C 58 295.522, 59.228 295.226, 61.750 293.776 C 68.549 289.866, 79.815 281.612, 77.750 282.053 C 77.612 282.083, 73.112 284.654, 67.750 287.768 M 76 306.163 C 66.375 311.731, 58.356 316.404, 58.179 316.547 C 58.003 316.690, 58.003 318.190, 58.179 319.878 L 58.500 322.949 75.453 310.471 C 91.677 298.530, 94.947 295.976, 93.950 296.020 C 93.703 296.031, 85.625 300.595, 76 306.163 M 151.259 303.856 C 144.736 308.576, 143.413 309.979, 148 307.313 C 149.925 306.194, 152.963 304.444, 154.750 303.424 C 156.537 302.404, 158 301.216, 158 300.784 C 158 299.364, 156.565 300.018, 151.259 303.856 M 33.937 307.348 C 28.128 310.732, 23.228 313.950, 23.049 314.500 C 22.869 315.050, 23.915 316.090, 25.373 316.810 C 27.867 318.043, 28.499 317.786, 36.010 312.493 C 41.197 308.837, 44.214 305.996, 44.618 304.386 C 44.960 303.023, 45.074 301.747, 44.870 301.552 C 44.667 301.357, 39.747 303.965, 33.937 307.348 M 77.250 324.296 C 58.470 335.204, 58 335.556, 58 338.738 C 58 340.532, 58.245 342, 58.543 342 C 59.264 342, 97 313.951, 97 313.416 C 97 312.798, 97.891 312.307, 77.250 324.296 M 143.136 325.436 C 127.966 336.475, 125.306 338.635, 131 335.293 C 132.925 334.163, 139.787 330.222, 146.250 326.535 C 156.159 320.883, 158 319.454, 158 317.417 C 158 316.087, 157.882 315, 157.738 315 C 157.594 315, 151.023 319.696, 143.136 325.436 M 158.150 331.668 C 158.067 332.311, 151.137 337.884, 142.750 344.053 C 126.370 356.101, 123.492 358.468, 129 355.359 C 147.862 344.714, 158.294 338.397, 158.683 337.385 C 158.939 336.716, 158.958 334.893, 158.724 333.334 C 158.491 331.776, 158.232 331.026, 158.150 331.668 M 339 384.052 L 339 430.263 342.932 429.736 C 345.095 429.446, 349.356 428.068, 352.401 426.674 C 379.430 414.300, 385.592 372.462, 363.621 350.491 C 358.471 345.341, 348.732 339.887, 342.250 338.524 L 339 337.841 339 384.052 M 67.500 349.468 C 62.550 352.383, 58.342 355.558, 58.150 356.524 C 57.906 357.748, 60.324 356.527, 66.150 352.484 C 73.956 347.066, 78.046 343.889, 76.964 344.083 C 76.709 344.129, 72.450 346.552, 67.500 349.468 M 75.500 359.920 C 59.370 369.272, 58.483 369.945, 58.173 373.074 C 57.912 375.704, 58.114 376.159, 59.173 375.317 C 59.903 374.736, 67.475 369.199, 76 363.012 C 91.305 351.904, 93.832 349.969, 92.950 350.032 C 92.703 350.050, 84.850 354.499, 75.500 359.920 M 150.217 356.940 C 139.079 365.090, 137.867 366.277, 144.500 362.537 C 157.383 355.272, 160 353.454, 160 351.766 C 160 350.795, 159.887 350.033, 159.750 350.074 C 159.613 350.114, 155.323 353.204, 150.217 356.940 M 143.999 378.091 C 134.924 384.741, 127.050 390.615, 126.500 391.144 C 125.950 391.673, 133.488 387.496, 143.250 381.861 C 159.603 372.422, 161 371.395, 161 368.808 C 161 367.264, 160.887 366, 160.749 366 C 160.611 366, 153.073 371.441, 143.999 378.091 M 76.250 377.695 C 58.285 388.121, 58 388.339, 58 391.658 L 58 395.030 69.250 386.707 C 75.438 382.129, 83.763 376.011, 87.750 373.112 C 93.860 368.669, 96.034 366.787, 94.750 367.052 C 94.612 367.080, 86.287 371.869, 76.250 377.695 M 156 387.238 C 148.134 392.770, 147.567 393.813, 154.500 390 C 161.500 386.150, 162.351 385.488, 161.863 384.273 C 161.663 383.777, 159.025 385.111, 156 387.238 M 71 399.539 C 61.668 405.043, 58.412 407.482, 58.154 409.158 C 57.883 410.918, 58.100 411.176, 59.154 410.352 C 59.894 409.773, 65.787 405.599, 72.250 401.076 C 78.713 396.553, 84 392.661, 84 392.426 C 84 391.835, 84.813 391.391, 71 399.539 M 147 409.005 C 130.589 420.910, 127.305 423.573, 133 420.359 C 151.956 409.661, 162.296 403.393, 162.693 402.359 C 162.955 401.676, 163.019 400.362, 162.835 399.439 C 162.579 398.156, 158.850 400.408, 147 409.005 M 76.250 412.668 C 59.303 422.517, 58 423.478, 58 426.137 C 58 427.712, 58.211 429, 58.469 429 C 58.924 429, 92.536 404.576, 94.450 402.854 C 96.500 401.011, 93.845 402.443, 76.250 412.668 M 149 425.621 C 134.872 435.937, 129.932 439.906, 135 436.869 C 136.375 436.045, 143.283 432.056, 150.351 428.005 C 163.114 420.689, 164.477 419.534, 163.835 416.575 C 163.594 415.467, 159.420 418.012, 149 425.621 M 67.086 436.514 C 59.082 441.280, 57.327 442.660, 58.185 443.519 C 58.718 444.051, 75 433.317, 75 432.434 C 75 431.794, 75.105 431.740, 67.086 436.514 M 145.099 446.468 C 134.428 454.407, 125.203 461.411, 124.599 462.033 C 123.803 462.853, 162.568 441.067, 164.816 439.431 C 164.990 439.304, 164.990 437.588, 164.816 435.617 L 164.500 432.034 145.099 446.468 M 76 446.088 C 67.475 451.046, 59.900 455.456, 59.168 455.888 C 58.424 456.325, 57.982 457.863, 58.168 459.369 C 58.492 462, 58.900 461.776, 74.500 450.419 C 97.474 433.693, 97.516 433.573, 76 446.088 M 75 464.617 C 65.925 469.885, 58.333 474.355, 58.130 474.551 C 57.926 474.747, 58.043 476.036, 58.389 477.415 C 59.002 479.855, 59.436 479.620, 74.259 468.823 C 88.849 458.197, 92.979 454.977, 91.964 455.019 C 91.709 455.030, 84.075 459.349, 75 464.617 M 158.462 472.165 L 153.500 477.330 157.965 474.777 C 160.807 473.153, 162.684 471.275, 163.128 469.612 C 163.513 468.176, 163.737 467, 163.626 467 C 163.515 467, 161.192 469.324, 158.462 472.165 M 82 478.163 C 72.375 483.731, 64.315 488.444, 64.089 488.637 C 63.864 488.830, 64.466 489.857, 65.427 490.920 C 67.134 492.806, 67.549 492.576, 82.838 481.259 C 99.122 469.206, 100.698 467.987, 99.950 468.020 C 99.703 468.031, 91.625 472.595, 82 478.163 M 132.144 480.961 C 121.533 487.121, 121.498 487.159, 123.874 490.090 C 124.949 491.415, 125.979 492.262, 126.164 491.972 C 126.349 491.681, 129.864 487.968, 133.975 483.722 C 138.086 479.475, 141.236 476.025, 140.975 476.055 C 140.714 476.085, 136.740 478.293, 132.144 480.961 M 83.777 494.401 C 78.714 497.409, 78.258 498.009, 81.083 497.945 C 82.520 497.912, 84.443 496.696, 85.826 494.945 C 87.105 493.325, 88.005 492.042, 87.826 492.094 C 87.647 492.146, 85.824 493.184, 83.777 494.401" stroke="none" fill="#293d4d" fill-rule="evenodd"/><path d="M 97.500 133.841 C 95.850 134.754, 94.380 135.545, 94.234 135.600 C 93.956 135.704, 99.134 157.252, 99.576 157.831 C 99.715 158.013, 100.822 157.631, 102.035 156.981 C 103.521 156.186, 104.019 156.160, 103.562 156.900 C 103.085 157.672, 105.871 158, 112.902 158 L 122.923 158 123.911 154.250 C 127.402 141.003, 129.189 132.855, 128.708 132.375 C 128.403 132.070, 125.055 133.660, 121.268 135.910 C 113.481 140.536, 111.765 141.011, 114.623 137.750 C 119.920 131.706, 120.160 131.991, 109.872 132.091 C 103.154 132.157, 99.650 132.653, 97.500 133.841 M 99 169.667 C 99 173.855, 99.267 173.794, 100.800 169.250 C 101.702 166.575, 101.640 166, 100.448 166 C 99.447 166, 99 167.133, 99 169.667 M 106.500 170.112 C 102.650 172.355, 99.404 174.280, 99.287 174.391 C 99.170 174.502, 98.010 180.059, 96.710 186.739 C 94.347 198.879, 94.347 198.885, 96.423 197.807 C 98.318 196.823, 98.293 196.953, 96.148 199.287 C 92.718 203.018, 91.272 217.334, 93.572 224.793 C 93.887 225.816, 94.444 225.838, 96.235 224.898 C 98.434 223.744, 98.449 223.767, 96.750 225.683 C 94.427 228.304, 94.549 229.924, 97.331 233.400 L 99.651 236.300 105.879 232.650 C 109.305 230.643, 112.396 229, 112.750 229 C 113.103 229, 112.053 230.463, 110.415 232.250 C 103.057 240.282, 103.185 239.630, 108.473 242.199 L 113.177 244.485 117.839 241.906 C 121.094 240.106, 123.481 237.708, 125.750 233.958 C 129.439 227.862, 130.116 224.860, 127.289 227.128 C 126.110 228.074, 126.265 227.520, 127.789 225.346 C 130.051 222.119, 130.490 218.698, 129.364 213.070 C 128.893 210.713, 128.311 210.035, 127.114 210.448 C 125.821 210.894, 125.854 210.729, 127.279 209.621 C 128.981 208.297, 128.965 207.804, 126.929 198.368 C 125.758 192.941, 124.662 188.354, 124.493 188.176 C 124.324 187.998, 122.682 188.613, 120.843 189.543 L 117.500 191.234 120.760 187.809 C 123.960 184.448, 124.002 184.283, 123.010 179.055 C 122.455 176.125, 122 171.988, 122 169.864 L 122 166 117.750 166.018 C 114.611 166.031, 111.671 167.101, 106.500 170.112 M 309 180.071 C 296.625 187.262, 284.587 194.256, 282.250 195.615 C 279.913 196.973, 278 197.916, 278 197.710 C 278 197.504, 287.389 190.847, 298.864 182.918 C 318.721 169.195, 319.561 168.485, 316.286 168.185 C 310.678 167.672, 299.198 169.866, 294.176 172.411 C 291.604 173.715, 280.163 180.193, 268.750 186.807 C 257.337 193.421, 248 198.708, 248 198.555 C 248 198.402, 254.271 193.385, 261.936 187.408 C 269.601 181.430, 275.687 176.353, 275.460 176.127 C 274.781 175.448, 263.051 179.987, 254.500 184.238 C 231.601 195.622, 211.003 214.488, 196.385 237.463 L 194.500 240.427 200.500 237.032 C 203.800 235.164, 208.075 232.664, 210 231.476 C 222.593 223.702, 219.655 226.641, 204 237.476 C 192.393 245.510, 191.276 246.570, 188.364 252.314 C 185.136 258.684, 178.682 276, 179.536 276 C 179.903 276, 198.620 265.310, 219.250 253.318 C 219.662 253.078, 220 253.066, 220 253.290 C 220 253.514, 210.377 260.099, 198.616 267.923 L 177.231 282.148 176.046 288.171 C 175.394 291.484, 175.017 294.350, 175.207 294.540 C 175.397 294.730, 187.241 288.134, 201.526 279.881 C 248.070 252.993, 248.343 252.999, 207 279.989 C 190.775 290.581, 176.539 300.204, 175.365 301.374 C 172.740 303.988, 170.964 314.612, 173.302 313.714 C 174.075 313.418, 189.285 304.752, 207.103 294.458 C 224.921 284.163, 239.838 275.547, 240.250 275.311 C 240.662 275.075, 241 275.086, 241 275.336 C 241 275.586, 226.262 285.369, 208.250 297.077 C 190.238 308.784, 174.713 319.026, 173.750 319.836 C 172.275 321.079, 172 323.073, 172 332.550 L 172 343.790 208.250 322.822 C 228.188 311.289, 246.412 300.743, 248.750 299.385 C 251.088 298.027, 253 297.110, 253 297.347 C 253 297.585, 235 309.359, 213 323.512 C 182.976 342.828, 173 349.729, 173 351.181 C 173 354.262, 175.145 367.385, 175.855 368.649 C 176.272 369.393, 193.271 360.102, 224 342.336 C 250.125 327.232, 272.400 314.397, 273.500 313.814 C 279.606 310.581, 268.759 317.765, 225.750 345.441 C 192.363 366.925, 178 376.700, 178 377.935 C 178 379.625, 179.930 386, 180.442 386 C 180.640 386, 253.506 344.041, 256.220 342.364 C 256.649 342.099, 257 342.091, 257 342.346 C 257 342.602, 240.101 353.525, 219.446 366.621 C 178.660 392.480, 181.238 390.235, 183.995 397.487 C 184.904 399.877, 185.137 399.960, 187.237 398.638 C 188.482 397.854, 205.700 387.892, 225.500 376.500 C 245.300 365.108, 263.075 354.863, 265 353.734 C 266.925 352.604, 268.050 352.160, 267.500 352.746 C 266.950 353.333, 248.950 364.924, 227.500 378.504 C 206.050 392.084, 188.126 403.548, 187.669 403.979 C 186.715 404.878, 190.710 413.288, 191.788 412.650 C 193.771 411.477, 295.644 352.713, 296.500 352.249 C 297.167 351.887, 297.167 352.059, 296.500 352.763 C 295.950 353.344, 275.700 366.517, 251.500 382.037 C 227.300 397.557, 204.438 412.230, 200.695 414.643 L 193.890 419.031 196.146 423.045 C 197.542 425.530, 198.920 426.861, 199.761 426.538 C 200.810 426.136, 248.436 398.845, 271 385.716 C 272.925 384.596, 274.050 384.149, 273.500 384.722 C 272.950 385.295, 259.486 393.968, 243.581 403.997 C 227.676 414.025, 211.566 424.214, 207.781 426.640 L 200.900 431.051 203.074 434.105 C 204.270 435.784, 205.797 437.369, 206.467 437.626 C 207.137 437.883, 223.169 429.128, 242.093 418.172 C 273.116 400.209, 276.473 398.016, 276.227 395.875 C 276.077 394.569, 275.688 391.182, 275.362 388.349 C 274.819 383.637, 274.982 383.058, 277.268 381.560 C 279.583 380.043, 280.069 380.044, 283.883 381.570 C 287.514 383.023, 288 383.598, 288 386.442 C 288 390.482, 288.704 391.202, 291.381 389.898 C 293.189 389.017, 293.150 389.148, 291.112 390.791 L 288.725 392.716 290.509 398.390 C 291.491 401.510, 292.671 404.297, 293.133 404.582 C 293.594 404.867, 296.003 403.910, 298.486 402.455 C 300.969 401, 303 400.059, 303 400.363 C 303 400.667, 300.980 402.099, 298.512 403.546 C 294.933 405.643, 294.205 406.513, 294.917 407.838 C 297.006 411.723, 302.470 417.688, 307.183 421.229 L 312.246 425.034 318.873 421.353 C 322.518 419.329, 325.831 417.183, 326.235 416.586 C 326.639 415.989, 326.976 397.846, 326.985 376.269 L 327 337.038 324.750 336.605 C 313.572 334.451, 310.069 333.400, 304.078 330.402 C 299.373 328.049, 295.335 324.970, 291.344 320.693 C 280.748 309.339, 276.413 296.610, 277.315 279.500 C 278.120 264.235, 282.497 253.658, 292.303 243.278 C 300.430 234.677, 310.770 229.216, 322.212 227.485 L 326.500 226.836 326.563 220.918 C 326.597 217.663, 326.431 215, 326.193 215 C 325.956 215, 323.003 216.642, 319.631 218.649 C 297.918 231.572, 303.723 227.389, 345.500 200.008 C 365.850 186.670, 382.895 175.395, 383.377 174.952 C 384.163 174.229, 381.546 173.275, 374 171.534 C 371.619 170.984, 363.739 175.275, 313.250 204.615 C 303.693 210.168, 310.436 205.353, 336.649 187.904 L 364.298 169.500 359.329 168.881 C 356.596 168.541, 349.216 167.978, 342.930 167.630 L 331.500 166.997 309 180.071 M 364.003 193.049 C 348.880 201.811, 336.355 209.434, 336.170 209.990 C 335.985 210.545, 336.524 211, 337.369 211 C 338.542 211, 338.975 212.390, 339.202 216.893 L 339.500 222.787 369.770 203.073 C 386.419 192.231, 400.540 182.860, 401.152 182.248 C 402.223 181.177, 399.133 179.352, 393.413 177.679 C 392.108 177.297, 382.767 182.178, 364.003 193.049 M 374.018 204.964 C 355.054 215.923, 339.420 225.251, 339.278 225.695 C 339.135 226.138, 341.437 226.569, 344.394 226.652 C 350.192 226.817, 357.397 229.540, 362.662 233.556 L 365.935 236.052 395.717 216.888 C 412.098 206.348, 425.926 197.338, 426.446 196.866 C 427.438 195.966, 425.474 194.142, 421 191.807 C 419.625 191.090, 418.275 190.254, 418 189.949 C 417.035 188.879, 410.254 185, 409.382 185.019 C 408.897 185.030, 392.983 194.005, 374.018 204.964 M 400.344 218.750 L 368.220 237.320 373.360 243.475 C 376.187 246.860, 379.429 250.924, 380.565 252.507 L 382.629 255.384 413.065 235.746 C 429.804 224.945, 444.400 215.427, 445.500 214.595 C 447.436 213.131, 447.307 212.904, 441.500 207.537 C 438.200 204.487, 434.818 201.584, 433.984 201.086 C 432.868 200.419, 423.989 205.081, 400.344 218.750 M 419 237.520 C 401.675 247.594, 386.729 256.318, 385.786 256.905 C 384.204 257.890, 384.301 258.484, 387.043 264.596 C 391.664 274.896, 391.161 285, 386.027 285 C 382.309 285, 378 282.800, 378 280.902 C 378 279.856, 377.592 279, 377.094 279 C 376.595 279, 376.419 278.115, 376.701 277.034 C 377.280 274.823, 375.226 265.257, 374.012 264.507 C 373.349 264.098, 359.406 271.741, 347.250 279.175 C 345.462 280.269, 344 280.942, 344 280.672 C 344 280.402, 350.510 276.013, 358.467 270.918 L 372.934 261.656 370.730 257.734 C 368.358 253.514, 359.350 244, 357.726 244 C 357.182 244, 352.756 246.278, 347.889 249.063 L 339.041 254.127 339.026 291.435 L 339.010 328.744 343.913 329.394 C 368.510 332.657, 386.191 351.954, 388.562 378.126 C 389.358 386.906, 387.293 399.050, 383.597 407.324 C 376.589 423.017, 360.703 435.484, 344.818 437.758 L 339.500 438.519 339 444.608 C 338.309 453.019, 334.718 456.984, 329.565 455.025 C 327.122 454.096, 327 453.688, 327 446.448 L 327 438.847 323.250 439.063 C 318.566 439.333, 314.817 438.372, 308.775 435.353 L 304.050 432.992 273.528 452.746 C 256.740 463.611, 243.004 472.812, 243.002 473.193 C 243.001 473.575, 244.831 474.978, 247.069 476.313 L 251.137 478.739 281.319 461.277 C 325.787 435.548, 326.172 435.633, 284.750 462.030 C 268.938 472.107, 256 480.633, 256 480.976 C 256 481.320, 258.055 482.600, 260.566 483.820 L 265.133 486.039 274.816 480.381 C 289.748 471.658, 289.753 472.175, 274.828 481.628 L 266.732 486.756 272.468 488.902 C 275.623 490.083, 280.780 491.765, 283.928 492.640 L 289.652 494.231 329.076 471.488 C 350.759 458.979, 368.950 448.538, 369.500 448.285 C 372.878 446.736, 361.531 454.597, 332.776 473.728 C 314.777 485.703, 300.040 495.799, 300.026 496.165 C 300.012 496.530, 303.278 497.137, 307.285 497.512 L 314.569 498.195 327.035 490.970 C 333.891 486.997, 339.837 483.551, 340.250 483.314 C 340.663 483.076, 341 483.085, 341 483.332 C 341 483.580, 335.938 487.094, 329.750 491.141 L 318.500 498.500 327.304 498.790 L 336.109 499.079 355.065 488.117 C 365.491 482.088, 373.814 477.491, 373.561 477.902 C 373.307 478.313, 366.770 482.846, 359.035 487.977 C 351.300 493.107, 345.186 497.519, 345.447 497.781 C 346.128 498.461, 364.874 496, 367.937 494.828 C 369.347 494.288, 372.300 493.687, 374.500 493.491 C 380.991 492.912, 395.341 488.323, 405.490 483.581 C 422.943 475.425, 442.057 461.491, 453.191 448.808 C 459.476 441.649, 470.255 426.922, 469.652 426.318 C 469.432 426.099, 467.620 426.881, 465.626 428.058 C 460.087 431.326, 461.311 429.478, 467.333 425.479 C 472.669 421.936, 475.081 418.643, 478.951 409.614 L 481.014 404.801 475.507 407.909 C 468.153 412.059, 468.464 411.078, 475.942 406.535 C 481.110 403.396, 482.136 402.246, 483.815 397.713 C 486.719 389.869, 487.302 387.699, 486.357 388.243 C 485.886 388.514, 473.575 395.609, 459 404.010 C 444.425 412.410, 432.163 419.471, 431.750 419.701 C 431.337 419.930, 431 419.910, 431 419.656 C 431 419.402, 443.938 410.520, 459.750 399.918 C 475.563 389.316, 488.807 380.182, 489.183 379.620 C 490.081 378.277, 493.005 362.282, 493.002 358.727 C 493 355.974, 492.980 355.966, 490.250 357.582 C 487.666 359.112, 487.621 359.110, 489.500 357.537 C 490.600 356.616, 492.025 355.556, 492.666 355.182 C 493.595 354.639, 494.520 347.233, 494.089 343.790 C 494.016 343.209, 459.268 362.775, 447.250 370.165 C 445.462 371.264, 444 371.952, 444 371.693 C 444 371.435, 455.475 363.888, 469.500 354.922 L 495 338.620 495 333.203 C 495 328.617, 494.751 327.882, 493.377 328.409 C 492.020 328.930, 416.736 372.149, 409 376.848 C 407.625 377.683, 406.950 377.899, 407.500 377.328 C 408.050 376.757, 427.567 363.968, 450.872 348.909 C 474.176 333.850, 493.464 320.955, 493.733 320.252 C 494.003 319.550, 493.925 316.985, 493.560 314.551 L 492.897 310.127 477.198 319.188 C 468.564 324.172, 459.925 329.171, 458 330.298 C 449 335.567, 457.788 329.528, 473.766 319.464 L 491.500 308.295 491.439 303.669 C 491.405 301.125, 491.104 298.771, 490.771 298.437 C 490.437 298.104, 473.590 307.379, 453.332 319.048 C 411.403 343.201, 414.240 341.606, 415.330 340.410 C 415.786 339.910, 432.436 329.099, 452.330 316.386 L 488.500 293.272 488.295 288.981 C 488.183 286.621, 487.733 284.334, 487.295 283.898 C 486.858 283.461, 470.750 292.212, 451.500 303.343 C 410.991 326.767, 404.288 330.569, 405.073 329.674 C 405.388 329.315, 423.388 317.719, 445.073 303.905 C 466.758 290.092, 484.675 278.625, 484.888 278.424 C 485.369 277.970, 482.907 269, 482.302 269 C 481.958 269, 428.875 299.410, 412 309.274 C 410.075 310.399, 408.950 310.856, 409.500 310.289 C 410.050 309.722, 426.332 299.282, 445.683 287.088 L 480.865 264.918 478.949 260.709 C 477.895 258.394, 476.656 256.585, 476.196 256.690 C 475.737 256.794, 453.792 269.336, 427.430 284.561 C 369.578 317.972, 370.252 317.589, 371.500 316.279 C 372.711 315.006, 470.687 252.057, 472.596 251.325 C 473.663 250.915, 473.507 249.944, 471.848 246.654 C 470.697 244.369, 469.608 242.336, 469.430 242.136 C 469.251 241.936, 450.969 252.235, 428.803 265.024 C 406.636 277.812, 388.163 288.465, 387.750 288.697 C 387.337 288.928, 387 288.917, 387 288.671 C 387 288.425, 404.212 277.306, 425.250 263.961 C 446.288 250.616, 464.121 239.129, 464.879 238.434 C 466.196 237.227, 465.557 235.716, 461.370 230.129 C 461.217 229.925, 445.301 238.867, 426 250 C 406.699 261.133, 390.696 270.030, 390.438 269.771 C 390.179 269.512, 400.887 262.395, 414.234 253.954 C 427.580 245.513, 442.906 235.765, 448.292 232.292 L 458.084 225.977 455.423 222.489 C 453.960 220.570, 452.254 219.046, 451.631 219.101 C 451.009 219.157, 436.325 227.445, 419 237.520 M 320.500 236.583 C 318.300 237.406, 315.669 238.269, 314.654 238.500 C 310.975 239.341, 304.087 244.080, 300.494 248.243 C 283.359 268.097, 285.256 301.784, 304.391 317.464 C 309.561 321.701, 320.586 326.998, 324.235 326.999 L 326.970 327 326.959 281 C 326.950 245.379, 326.671 235.010, 325.724 235.044 C 325.051 235.068, 322.700 235.761, 320.500 236.583 M 339 244.119 L 339 253.051 341.750 251.577 C 343.262 250.766, 347.183 248.295, 350.462 246.085 L 356.423 242.066 349.962 239.178 C 338.446 234.031, 339 233.781, 339 244.119 M 339.021 384.047 L 339.054 430.256 342.960 429.732 C 345.108 429.444, 349.356 428.068, 352.401 426.674 C 379.430 414.300, 385.592 372.462, 363.621 350.491 C 358.469 345.339, 348.732 339.887, 342.243 338.523 L 338.987 337.838 339.021 384.047 M 243.252 421.283 C 224.966 432.952, 210.016 442.725, 210.029 443 C 210.043 443.275, 211.317 445.023, 212.861 446.885 L 215.669 450.270 249.084 431.009 C 267.463 420.416, 282.700 411.568, 282.945 411.346 C 283.584 410.768, 278.171 399.994, 277.261 400.033 C 276.842 400.051, 261.539 409.614, 243.252 421.283 M 253 432.581 C 236.225 443.312, 221.825 452.500, 221 452.997 C 219.761 453.745, 220.108 454.513, 223 457.421 L 226.500 460.940 245.500 449.911 C 255.950 443.845, 266.413 437.765, 268.750 436.399 C 271.087 435.033, 273 434.107, 273 434.340 C 273 434.574, 263.065 440.998, 250.922 448.617 L 228.844 462.469 232.452 465.775 C 234.436 467.593, 236.384 468.900, 236.780 468.679 C 247.455 462.722, 299.772 432.469, 300.441 431.866 C 301 431.363, 299.754 429.626, 297.372 427.586 C 295.166 425.699, 291.426 421.644, 289.059 418.577 C 286.693 415.510, 284.474 413.015, 284.128 413.034 C 283.783 413.053, 269.775 421.849, 253 432.581 M 320.087 422.627 L 314.701 426.255 317.695 427.514 C 319.342 428.206, 322.109 429.085, 323.845 429.466 L 327 430.159 327 424.579 C 327 421.511, 326.656 419, 326.237 419 C 325.817 419, 323.049 420.632, 320.087 422.627 M 377.252 498.238 C 371.398 499.903, 370.219 500.559, 371.124 501.650 C 372.776 503.640, 374.336 503.338, 380.206 499.894 C 388.233 495.184, 388.152 495.138, 377.252 498.238 M 347.250 503.737 C 342.171 504.093, 340.413 505.454, 343.502 506.639 C 345.455 507.389, 348.982 506.479, 351.500 504.575 C 352.600 503.744, 353.275 503.133, 353 503.217 C 352.725 503.301, 350.137 503.535, 347.250 503.737 M 317.500 506 C 318.284 507.269, 322.037 507.269, 324 506 C 325.097 505.291, 324.342 505.027, 321.191 505.015 C 318.570 505.006, 317.124 505.392, 317.500 506" stroke="none" fill="#fae263" fill-rule="evenodd"/></svg>