<svg xmlns="http://www.w3.org/2000/svg" width="512" height="512" viewBox="0 0 512 512" version="1.1"><path d="M 347.923 11.923 C 345.631 14.216, 345 15.742, 345 19 C 345 22.258, 345.631 23.784, 347.923 26.077 L 350.846 29 374.672 29 L 398.498 29 344.753 82.744 L 291.009 136.489 272.754 118.381 C 262.715 108.422, 253.387 99.537, 252.027 98.637 C 250.668 97.737, 247.600 97, 245.212 97 L 240.868 97 142.412 195.250 L 43.956 293.500 43.978 298.295 C 43.995 302.013, 44.542 303.633, 46.414 305.505 C 49.288 308.379, 52.980 309.465, 56.750 308.547 C 58.620 308.091, 89.320 278.080, 152.740 214.711 L 245.980 121.545 266.296 141.772 C 286.578 161.967, 286.619 162, 291.036 162 L 295.460 162 354.230 103.261 L 413 44.523 413 67.311 C 413 91.447, 413.527 94.606, 417.945 96.970 C 420.783 98.489, 426.238 98.222, 428.783 96.439 C 433.855 92.887, 434 91.700, 434 53.615 C 434 33.922, 433.582 17.031, 433.061 15.661 C 432.545 14.303, 431.110 12.249, 429.873 11.096 C 427.670 9.043, 426.827 9, 389.235 9 L 350.846 9 347.923 11.923 M 369.077 138.589 L 366 141.178 366 222.942 L 366 304.707 358.750 305.350 C 354.762 305.703, 350.488 306.272, 349.250 306.613 L 347 307.233 347 250.206 L 347 193.178 343.923 190.589 L 340.847 188 317.500 188 L 294.153 188 291.077 190.589 L 288 193.178 288 269.531 L 288 345.884 284.059 352.192 C 277.106 363.320, 271.636 379.197, 270.034 392.906 C 269.610 396.533, 269.204 366.053, 269.131 325.173 L 269 250.846 266.077 247.923 L 263.154 245 239.500 245 L 215.846 245 212.923 247.923 L 210 250.846 210 345.500 L 210 440.154 212.923 443.077 L 215.846 446 239.500 446 L 263.154 446 266.077 443.077 L 269 440.154 269.160 424.327 C 269.248 415.622, 269.479 410.075, 269.672 412 C 271.581 430.968, 278.434 449.403, 288.584 462.876 C 302.681 481.588, 322.251 494.744, 344.881 500.723 C 353.067 502.886, 356.661 503.264, 369 503.264 C 381.299 503.264, 384.944 502.883, 393.011 500.750 C 410.538 496.118, 425.054 487.980, 437.859 475.609 C 450.632 463.270, 459.230 449.102, 464.629 431.500 C 467.194 423.137, 467.393 421.227, 467.445 404.500 C 467.494 388.562, 467.235 385.586, 465.189 378.518 C 459.142 357.628, 446.312 338.199, 430.517 326.013 L 425 321.757 424.968 231.628 C 424.944 162.356, 424.654 141.133, 423.718 139.913 C 420.981 136.348, 418.438 136, 395.142 136 L 372.153 136 369.077 138.589 M 386 230.981 L 386 305.962 388.750 306.590 C 392.191 307.375, 402.078 310.112, 403.750 310.743 C 404.743 311.117, 405 295.277, 405 233.607 L 405 156 395.500 156 L 386 156 386 230.981 M 308 266.559 C 308 313.128, 308.256 324.969, 309.250 324.389 C 309.938 323.988, 312.300 322.448, 314.500 320.967 C 316.700 319.486, 320.413 317.303, 322.750 316.117 L 327 313.959 327 260.980 L 327 208 317.500 208 L 308 208 308 266.559 M 230 345.500 L 230 426 239.500 426 L 249 426 249 345.500 L 249 265 239.500 265 L 230 265 230 345.500 M 133.923 270.923 L 131 273.846 131 356.500 L 131 439.154 133.923 442.077 L 136.846 445 160.500 445 L 184.154 445 187.077 442.077 L 190 439.154 190 356.500 L 190 273.846 187.077 270.923 L 184.154 268 160.500 268 L 136.846 268 133.923 270.923 M 151 357 L 151 426 160.500 426 L 170 426 170 357 L 170 288 160.500 288 L 151 288 151 357 M 362.500 325.639 C 334.620 329.109, 313.088 343.076, 300.136 366.090 C 293.211 378.395, 289.231 396.266, 290.468 409.500 C 293.705 444.124, 315.659 470.779, 348.701 480.204 C 354.913 481.976, 359.043 482.425, 369 482.410 C 383.805 482.388, 390.393 480.878, 403.500 474.502 C 439.407 457.034, 456.111 416.434, 443.078 378.306 C 434.375 352.845, 410.782 332.078, 385 327.182 C 378.393 325.928, 366.650 325.122, 362.500 325.639 M 367.388 334.942 C 363.318 336.660, 361 340.873, 361 346.555 C 361 351.630, 360.879 351.868, 357.961 352.508 C 354.873 353.187, 347.061 358.618, 343.718 362.412 C 342.706 363.560, 340.681 366.975, 339.217 370 C 337.010 374.562, 336.559 376.864, 336.570 383.500 C 336.587 393.093, 338.711 398.561, 345.121 405.515 C 350.680 411.546, 357.637 415.016, 366.367 416.112 C 374.313 417.110, 377.271 418.689, 379.589 423.172 C 384.100 431.896, 375.711 442.901, 366.341 440.549 C 361.985 439.456, 357.001 433.749, 356.996 429.850 C 356.989 423.015, 350.390 416.932, 344.567 418.394 C 343.207 418.735, 340.836 420.099, 339.297 421.425 C 336.745 423.624, 336.508 424.405, 336.590 430.331 C 336.659 435.232, 337.345 438.184, 339.385 442.354 C 342.662 449.051, 351.539 457.482, 357.055 459.134 C 360.869 460.277, 361 460.462, 361 464.704 C 361 471.565, 366.955 476.232, 373.586 474.568 C 378.280 473.390, 380.996 469.644, 381.033 464.295 C 381.066 459.581, 381.154 459.449, 386.256 456.500 C 400.247 448.411, 405.790 430.007, 398.803 414.845 C 393.840 404.074, 384.859 397.811, 371.755 395.981 C 361.278 394.518, 357.047 390.742, 357.015 382.827 C 356.985 375.524, 365.305 369.625, 372.353 371.951 C 377.250 373.568, 379.841 376.890, 381.010 383.051 C 382.413 390.451, 385.505 393.500, 391.605 393.500 C 395.529 393.500, 396.588 393.026, 399.206 390.095 C 402.055 386.906, 402.218 386.301, 401.758 380.575 C 400.915 370.077, 394.251 359.533, 385.534 354.909 L 381 352.503 381 346.767 C 381 341.908, 380.580 340.570, 378.250 338.013 C 375.298 334.774, 370.801 333.502, 367.388 334.942 M 54.923 356.923 L 52 359.846 52 399.500 L 52 439.154 54.923 442.077 L 57.846 445 81.500 445 L 105.154 445 108.077 442.077 L 111 439.154 111 399.500 L 111 359.846 108.077 356.923 L 105.154 354 81.500 354 L 57.846 354 54.923 356.923 M 72 400 L 72 426 81.500 426 L 91 426 91 400 L 91 374 81.500 374 L 72 374 72 400" stroke="none" fill="#04bee3" fill-rule="evenodd"/></svg>